<svg width="111" height="108" viewBox="0 0 111 108" fill="none" xmlns="http://www.w3.org/2000/svg">
<rect x="23.1758" width="64" height="64" rx="17" fill="#FF2D55"/>
<path d="M41.3945 40V27.0977H44.8164V40H41.3945ZM43.1055 25.6914C42.5977 25.6914 42.1641 25.5195 41.8047 25.1758C41.4453 24.832 41.2656 24.4062 41.2656 23.8984C41.2656 23.3906 41.4453 22.9688 41.8047 22.6328C42.1641 22.2891 42.5977 22.1172 43.1055 22.1172C43.6211 22.1172 44.0586 22.2891 44.418 22.6328C44.7773 22.9688 44.957 23.3906 44.957 23.8984C44.957 24.4062 44.7773 24.832 44.418 25.1758C44.0586 25.5195 43.6211 25.6914 43.1055 25.6914ZM47.1953 40V27.0977H50.5V29.4062H50.5703C51.3281 27.7422 52.7109 26.9102 54.7188 26.9102C56.1484 26.9102 57.2695 27.3359 58.082 28.1875C58.9023 29.0391 59.3125 30.2188 59.3125 31.7266V40H55.8906V32.4414C55.8906 31.582 55.668 30.9219 55.2227 30.4609C54.7852 29.9922 54.1641 29.7578 53.3594 29.7578C52.5391 29.7578 51.875 30.0234 51.3672 30.5547C50.8672 31.0859 50.6172 31.7812 50.6172 32.6406V40H47.1953ZM62.5 24.2266H65.9219V27.0977H68.3125V29.6875H65.9219V35.957C65.9219 36.9414 66.4336 37.4336 67.457 37.4336C67.793 37.4336 68.0781 37.4141 68.3125 37.375V39.9062C67.8438 40 67.293 40.0469 66.6602 40.0469C65.168 40.0469 64.1016 39.7734 63.4609 39.2266C62.8203 38.6797 62.5 37.7773 62.5 36.5195V29.6875H60.7539V27.0977H62.5V24.2266ZM73.7969 39.5898C73.4297 39.957 72.9844 40.1406 72.4609 40.1406C71.9375 40.1406 71.4922 39.957 71.125 39.5898C70.7578 39.2227 70.5742 38.7773 70.5742 38.2539C70.5742 37.7305 70.7578 37.2852 71.125 36.918C71.4922 36.5508 71.9375 36.3672 72.4609 36.3672C72.9844 36.3672 73.4297 36.5508 73.7969 36.918C74.1641 37.2852 74.3477 37.7305 74.3477 38.2539C74.3477 38.7773 74.1641 39.2227 73.7969 39.5898Z" fill="white"/>
<g filter="url(#filter0_d_172_1079)">
<path d="M25 80V71.5449H26.3125V80H25ZM28.2871 80V73.6367H29.5586V74.5977H29.6582C29.8145 74.2578 30.0449 73.9922 30.3496 73.8008C30.6543 73.6094 31.0391 73.5137 31.5039 73.5137C32.2188 73.5137 32.7656 73.7188 33.1445 74.1289C33.5234 74.5391 33.7129 75.123 33.7129 75.8809V80H32.4355V76.1797C32.4355 75.6484 32.3242 75.2539 32.1016 74.9961C31.8828 74.7344 31.5391 74.6035 31.0703 74.6035C30.7617 74.6035 30.4941 74.6719 30.2676 74.8086C30.041 74.9414 29.8652 75.1328 29.7402 75.3828C29.6191 75.6289 29.5586 75.9238 29.5586 76.2676V80H28.2871ZM37.0234 80L34.7207 73.6367H36.0742L37.6621 78.7109H37.7559L39.3379 73.6367H40.6797L38.3828 80H37.0234ZM44.3887 80.123C43.7676 80.123 43.2344 79.9902 42.7891 79.7246C42.3438 79.4551 42 79.0742 41.7578 78.582C41.5195 78.0898 41.4004 77.5078 41.4004 76.8359V76.8301C41.4004 76.166 41.5195 75.5859 41.7578 75.0898C42 74.5938 42.3398 74.207 42.7773 73.9297C43.2188 73.6523 43.7344 73.5137 44.3242 73.5137C44.918 73.5137 45.4277 73.6465 45.8535 73.9121C46.2832 74.1777 46.6133 74.5508 46.8438 75.0312C47.0742 75.5078 47.1895 76.0664 47.1895 76.707V77.1523H42.0449V76.2441H46.5566L45.9473 77.0879V76.5781C45.9473 76.125 45.877 75.75 45.7363 75.4531C45.5996 75.1523 45.4102 74.9277 45.168 74.7793C44.9258 74.6309 44.6465 74.5566 44.3301 74.5566C44.0137 74.5566 43.7305 74.6348 43.4805 74.791C43.2344 74.9434 43.0391 75.1699 42.8945 75.4707C42.7539 75.7715 42.6836 76.1406 42.6836 76.5781V77.0879C42.6836 77.5059 42.7539 77.8633 42.8945 78.1602C43.0352 78.457 43.2344 78.6836 43.4922 78.8398C43.7539 78.9961 44.0625 79.0742 44.418 79.0742C44.6914 79.0742 44.9258 79.0371 45.1211 78.9629C45.3203 78.8848 45.4824 78.7891 45.6074 78.6758C45.7363 78.5625 45.8242 78.4512 45.8711 78.3418L45.8945 78.2949H47.125L47.1133 78.3477C47.0586 78.5586 46.9629 78.7695 46.8262 78.9805C46.6895 79.1875 46.5078 79.377 46.2812 79.5488C46.0586 79.7207 45.7891 79.8594 45.4727 79.9648C45.1602 80.0703 44.7988 80.123 44.3887 80.123ZM51.0156 80.123C50.5039 80.123 50.0586 80.0488 49.6797 79.9004C49.3008 79.748 49 79.5391 48.7773 79.2734C48.5547 79.0039 48.4238 78.6914 48.3848 78.3359V78.3242H49.6621V78.3359C49.7441 78.5742 49.9004 78.7676 50.1309 78.916C50.3613 79.0645 50.666 79.1387 51.0449 79.1387C51.3066 79.1387 51.5352 79.1016 51.7305 79.0273C51.9297 78.9531 52.0859 78.8496 52.1992 78.7168C52.3125 78.584 52.3691 78.4316 52.3691 78.2598V78.248C52.3691 78.0488 52.2891 77.8809 52.1289 77.7441C51.9688 77.6074 51.7051 77.4961 51.3379 77.4102L50.3184 77.1758C49.9199 77.0859 49.5898 76.9629 49.3281 76.8066C49.0664 76.6504 48.873 76.459 48.748 76.2324C48.623 76.002 48.5605 75.7324 48.5605 75.4238V75.418C48.5605 75.0469 48.666 74.7188 48.877 74.4336C49.0879 74.1445 49.3789 73.9199 49.75 73.7598C50.125 73.5957 50.5527 73.5137 51.0332 73.5137C51.5176 73.5137 51.9395 73.5898 52.2988 73.7422C52.6621 73.8906 52.9492 74.0977 53.1602 74.3633C53.3711 74.625 53.4961 74.9297 53.5352 75.2773V75.2832H52.3164V75.2715C52.2578 75.0488 52.1172 74.8633 51.8945 74.7148C51.6758 74.5664 51.3867 74.4922 51.0273 74.4922C50.7969 74.4922 50.5918 74.5293 50.4121 74.6035C50.2324 74.6738 50.0898 74.7734 49.9844 74.9023C49.8828 75.0273 49.832 75.1758 49.832 75.3477V75.3594C49.832 75.4922 49.8652 75.6094 49.9316 75.7109C50.002 75.8086 50.1113 75.8965 50.2598 75.9746C50.4082 76.0488 50.5996 76.1152 50.834 76.1738L51.8477 76.4023C52.457 76.5469 52.9102 76.7559 53.207 77.0293C53.5078 77.3027 53.6582 77.6699 53.6582 78.1309V78.1426C53.6582 78.5332 53.543 78.8789 53.3125 79.1797C53.082 79.4766 52.7676 79.709 52.3691 79.877C51.9746 80.041 51.5234 80.123 51.0156 80.123ZM57.5254 80.041C56.8301 80.041 56.3262 79.9082 56.0137 79.6426C55.7051 79.373 55.5508 78.9336 55.5508 78.3242V74.6387H54.5547V73.6367H55.5508V72.0312H56.8516V73.6367H58.2168V74.6387H56.8516V78.0137C56.8516 78.3574 56.9199 78.6055 57.0566 78.7578C57.1934 78.9062 57.4199 78.9805 57.7363 78.9805C57.8301 78.9805 57.9102 78.9785 57.9766 78.9746C58.0469 78.9707 58.127 78.9648 58.2168 78.957V79.9766C58.1152 79.9922 58.0059 80.0059 57.8887 80.0176C57.7715 80.0332 57.6504 80.041 57.5254 80.041ZM62.1309 80.041C61.4355 80.041 60.9316 79.9082 60.6191 79.6426C60.3105 79.373 60.1562 78.9336 60.1562 78.3242V74.6387H59.1602V73.6367H60.1562V72.0312H61.457V73.6367H62.8223V74.6387H61.457V78.0137C61.457 78.3574 61.5254 78.6055 61.6621 78.7578C61.7988 78.9062 62.0254 78.9805 62.3418 78.9805C62.4355 78.9805 62.5156 78.9785 62.582 78.9746C62.6523 78.9707 62.7324 78.9648 62.8223 78.957V79.9766C62.7207 79.9922 62.6113 80.0059 62.4941 80.0176C62.377 80.0332 62.2559 80.041 62.1309 80.041ZM64.3105 80V73.6367H65.582V74.5977H65.6816C65.7949 74.2578 65.9941 73.9941 66.2793 73.8066C66.5684 73.6191 66.9238 73.5254 67.3457 73.5254C67.4512 73.5254 67.5547 73.5312 67.6562 73.543C67.7578 73.5547 67.8398 73.5684 67.9023 73.584V74.7559C67.7891 74.7324 67.6758 74.7148 67.5625 74.7031C67.4531 74.6914 67.3379 74.6855 67.2168 74.6855C66.8926 74.6855 66.6074 74.748 66.3613 74.873C66.1191 74.998 65.9277 75.1738 65.7871 75.4004C65.6504 75.623 65.582 75.8887 65.582 76.1973V80H64.3105ZM71.248 80.123C70.7715 80.123 70.3691 80.0312 70.041 79.8477C69.7168 79.6602 69.4727 79.3906 69.3086 79.0391C69.1484 78.6836 69.0684 78.2559 69.0684 77.7559V73.6367H70.3398V77.457C70.3398 77.9805 70.4434 78.373 70.6504 78.6348C70.8574 78.8965 71.1953 79.0273 71.6641 79.0273C71.9141 79.0273 72.1367 78.9902 72.332 78.916C72.5273 78.8379 72.6914 78.7266 72.8242 78.582C72.957 78.4375 73.0547 78.2637 73.1172 78.0605C73.1836 77.8574 73.2168 77.627 73.2168 77.3691V73.6367H74.4941V80H73.2168V79.0391H73.123C73.0215 79.2656 72.8828 79.4609 72.707 79.625C72.5312 79.7852 72.3203 79.9082 72.0742 79.9941C71.832 80.0801 71.5566 80.123 71.248 80.123ZM78.6367 80.123C78.125 80.123 77.6797 80.0488 77.3008 79.9004C76.9219 79.748 76.6211 79.5391 76.3984 79.2734C76.1758 79.0039 76.0449 78.6914 76.0059 78.3359V78.3242H77.2832V78.3359C77.3652 78.5742 77.5215 78.7676 77.752 78.916C77.9824 79.0645 78.2871 79.1387 78.666 79.1387C78.9277 79.1387 79.1562 79.1016 79.3516 79.0273C79.5508 78.9531 79.707 78.8496 79.8203 78.7168C79.9336 78.584 79.9902 78.4316 79.9902 78.2598V78.248C79.9902 78.0488 79.9102 77.8809 79.75 77.7441C79.5898 77.6074 79.3262 77.4961 78.959 77.4102L77.9395 77.1758C77.541 77.0859 77.2109 76.9629 76.9492 76.8066C76.6875 76.6504 76.4941 76.459 76.3691 76.2324C76.2441 76.002 76.1816 75.7324 76.1816 75.4238V75.418C76.1816 75.0469 76.2871 74.7188 76.498 74.4336C76.709 74.1445 77 73.9199 77.3711 73.7598C77.7461 73.5957 78.1738 73.5137 78.6543 73.5137C79.1387 73.5137 79.5605 73.5898 79.9199 73.7422C80.2832 73.8906 80.5703 74.0977 80.7812 74.3633C80.9922 74.625 81.1172 74.9297 81.1562 75.2773V75.2832H79.9375V75.2715C79.8789 75.0488 79.7383 74.8633 79.5156 74.7148C79.2969 74.5664 79.0078 74.4922 78.6484 74.4922C78.418 74.4922 78.2129 74.5293 78.0332 74.6035C77.8535 74.6738 77.7109 74.7734 77.6055 74.9023C77.5039 75.0273 77.4531 75.1758 77.4531 75.3477V75.3594C77.4531 75.4922 77.4863 75.6094 77.5527 75.7109C77.623 75.8086 77.7324 75.8965 77.8809 75.9746C78.0293 76.0488 78.2207 76.1152 78.4551 76.1738L79.4688 76.4023C80.0781 76.5469 80.5312 76.7559 80.8281 77.0293C81.1289 77.3027 81.2793 77.6699 81.2793 78.1309V78.1426C81.2793 78.5332 81.1641 78.8789 80.9336 79.1797C80.7031 79.4766 80.3887 79.709 79.9902 79.877C79.5957 80.041 79.1445 80.123 78.6367 80.123ZM85.1465 80.041C84.4512 80.041 83.9473 79.9082 83.6348 79.6426C83.3262 79.373 83.1719 78.9336 83.1719 78.3242V74.6387H82.1758V73.6367H83.1719V72.0312H84.4727V73.6367H85.8379V74.6387H84.4727V78.0137C84.4727 78.3574 84.541 78.6055 84.6777 78.7578C84.8145 78.9062 85.041 78.9805 85.3574 78.9805C85.4512 78.9805 85.5312 78.9785 85.5977 78.9746C85.668 78.9707 85.748 78.9648 85.8379 78.957V79.9766C85.7363 79.9922 85.627 80.0059 85.5098 80.0176C85.3926 80.0332 85.2715 80.041 85.1465 80.041Z" fill="white"/>
</g>
<defs>
<filter id="filter0_d_172_1079" x="0" y="48.5449" width="110.838" height="58.5781" filterUnits="userSpaceOnUse" color-interpolation-filters="sRGB">
<feFlood flood-opacity="0" result="BackgroundImageFix"/>
<feColorMatrix in="SourceAlpha" type="matrix" values="0 0 0 0 0 0 0 0 0 0 0 0 0 0 0 0 0 0 127 0" result="hardAlpha"/>
<feOffset dy="2"/>
<feGaussianBlur stdDeviation="12.5"/>
<feComposite in2="hardAlpha" operator="out"/>
<feColorMatrix type="matrix" values="0 0 0 0 0 0 0 0 0 0 0 0 0 0 0 0 0 0 1 0"/>
<feBlend mode="normal" in2="BackgroundImageFix" result="effect1_dropShadow_172_1079"/>
<feBlend mode="normal" in="SourceGraphic" in2="effect1_dropShadow_172_1079" result="shape"/>
</filter>
</defs>
</svg>
